<?xml version="1.0" standalone="no"?>
<!DOCTYPE svg PUBLIC "-//W3C//DTD SVG 20010904//EN"
 "http://www.w3.org/TR/2001/REC-SVG-20010904/DTD/svg10.dtd">
<svg version="1.0" xmlns="http://www.w3.org/2000/svg"
 width="1214.000000pt" height="1214.000000pt" viewBox="0 0 1214.000000 1214.000000"
 preserveAspectRatio="xMidYMid meet">
<metadata>
Created by potrace 1.14, written by Peter Selinger 2001-2017
</metadata>
<g transform="translate(0.000000,1214.000000) scale(0.100000,-0.100000)"
fill="#000000" stroke="none">
<path d="M687 12084 c-1 -1 -30 -4 -63 -8 -209 -22 -414 -160 -528 -357 -34
-59 -73 -174 -81 -241 -9 -68 -9 -4993 -1 -5238 4 -102 9 -205 11 -230 2 -25
6 -94 10 -155 3 -60 8 -128 10 -150 2 -22 7 -67 10 -100 5 -55 10 -103 20
-180 2 -16 7 -57 11 -90 3 -33 8 -67 9 -77 2 -9 7 -38 10 -65 6 -42 44 -265
60 -348 178 -949 619 -1901 1249 -2700 39 -49 83 -103 97 -120 14 -16 61 -70
104 -120 167 -193 446 -458 710 -674 119 -97 365 -264 560 -381 121 -72 522
-280 540 -280 3 0 32 -12 63 -26 217 -100 766 -283 952 -317 14 -3 52 -12 85
-20 57 -15 237 -51 300 -61 17 -3 71 -12 120 -20 104 -17 141 -23 210 -31 28
-3 64 -8 80 -10 17 -2 62 -6 100 -10 39 -4 86 -8 105 -11 228 -26 957 -26
1215 0 17 2 66 7 110 11 44 4 87 8 95 10 8 1 42 6 75 9 92 11 131 17 330 51
681 118 1389 379 1990 735 100 59 404 263 476 319 26 20 59 45 75 56 15 11 32
25 38 30 6 6 34 28 61 50 305 243 584 531 899 925 56 71 254 356 323 466 301
480 523 940 689 1429 77 226 166 549 190 685 2 14 7 36 11 50 3 14 7 32 8 40
1 8 9 53 18 100 9 47 19 105 22 130 3 25 8 52 10 60 3 14 14 103 20 165 4 43
16 154 21 195 10 94 18 338 16 545 -1 127 -2 622 -1 1100 4 4500 4 4225 -14
4305 -62 270 -269 475 -541 535 -73 16 -160 18 -1010 18 -512 0 -958 -3 -990
-7 -191 -24 -384 -147 -494 -314 -23 -35 -42 -65 -42 -66 0 -2 -8 -21 -17 -42
-9 -22 -18 -43 -19 -49 -58 -196 -46 -378 36 -549 62 -128 192 -256 325 -320
128 -61 179 -69 480 -71 149 -2 290 -6 313 -9 272 -43 499 -247 574 -516 21
-74 21 -90 23 -1250 2 -1109 6 -1401 22 -1890 14 -418 7 -1118 -12 -1310 -2
-19 -6 -72 -10 -117 -3 -45 -7 -90 -9 -100 -2 -10 -7 -45 -10 -78 -9 -78 -14
-109 -36 -245 -13 -84 -19 -115 -31 -170 -6 -25 -13 -56 -15 -70 -3 -14 -12
-52 -21 -85 -8 -33 -17 -68 -19 -78 -10 -54 -94 -302 -150 -444 -240 -615
-542 -1114 -948 -1573 -162 -182 -461 -454 -666 -605 -241 -178 -524 -339
-850 -483 -290 -128 -731 -249 -1085 -298 -60 -8 -121 -17 -135 -19 -57 -8
-215 -21 -385 -31 -213 -13 -648 -7 -800 11 -16 2 -66 6 -110 10 -44 3 -87 8
-95 10 -8 2 -40 6 -70 10 -30 3 -66 7 -80 10 -14 2 -54 9 -90 15 -36 5 -76 12
-90 15 -14 3 -41 8 -60 11 -19 3 -60 12 -90 19 -30 8 -66 16 -80 19 -150 27
-490 133 -707 222 -118 47 -386 175 -468 222 -100 57 -140 82 -230 140 -282
183 -504 373 -785 671 -153 162 -388 482 -527 716 -93 156 -107 182 -171 310
-235 473 -394 971 -471 1475 -5 36 -12 83 -15 105 -3 22 -8 64 -12 94 -8 67
-12 105 -19 206 -4 44 -8 96 -11 115 -26 222 -24 1169 2 1870 3 80 7 667 9
1305 1 638 5 1176 9 1195 45 242 200 438 424 537 108 48 168 55 457 58 305 2
340 6 445 46 216 82 376 263 436 490 24 87 23 262 0 349 -68 254 -261 445
-515 511 -73 20 -109 21 -1034 22 -527 1 -959 1 -960 1z"/>
<path d="M5959 12037 c-2 -3 -34 -7 -71 -11 -83 -8 -276 -57 -360 -91 -364
-150 -638 -401 -812 -745 -120 -235 -168 -456 -161 -730 4 -176 7 -197 41
-335 67 -269 202 -509 399 -708 290 -295 676 -457 1090 -459 111 0 140 2 250
18 75 12 191 39 240 56 353 127 618 333 812 631 116 178 206 418 229 610 4 29
8 55 10 58 5 10 6 300 1 324 -3 11 -8 45 -12 75 -3 30 -20 106 -36 168 -112
429 -417 797 -819 989 -82 39 -206 87 -253 98 -188 41 -224 46 -378 51 -91 2
-167 3 -170 1z m261 -631 c129 -18 304 -85 385 -148 190 -145 296 -288 360
-483 42 -127 53 -319 26 -455 -66 -328 -318 -605 -639 -700 -100 -29 -148 -35
-282 -34 -493 5 -891 411 -893 909 0 158 29 280 100 420 136 267 413 461 700
491 32 4 59 7 60 9 5 3 145 -4 183 -9z"/>
<path d="M8327 8524 c-1 -1 -60 -5 -132 -8 -71 -4 -148 -10 -170 -12 -34 -4
-2807 -4 -3965 0 -206 0 -406 -2 -445 -6 -274 -28 -523 -150 -711 -348 -83
-87 -94 -100 -149 -185 -162 -247 -236 -504 -230 -800 2 -82 6 -161 9 -175 3
-14 9 -41 12 -60 10 -53 62 -195 91 -248 81 -149 199 -285 338 -390 104 -78
359 -200 475 -227 218 -50 284 -58 450 -58 103 0 248 9 272 18 7 2 31 6 53 9
208 22 687 183 842 282 48 30 51 31 44 11 -29 -72 -108 -368 -124 -463 -31
-176 -37 -215 -42 -249 -3 -23 -7 -50 -9 -61 -2 -11 -7 -54 -11 -95 -3 -41 -8
-85 -10 -99 -7 -47 -18 -295 -18 -435 -1 -202 11 -319 47 -480 11 -50 61 -166
98 -230 80 -135 277 -301 465 -391 125 -59 262 -102 413 -129 79 -14 325 -13
395 2 297 62 586 303 743 618 37 75 85 208 96 265 3 14 9 50 15 80 5 30 13 73
18 95 4 22 7 256 8 520 1 521 3 545 59 634 66 105 225 188 393 206 32 4 69 8
83 11 35 6 354 5 685 -1 291 -5 329 -2 414 37 43 19 180 103 191 117 3 3 34
31 70 61 232 196 398 484 444 769 18 110 18 321 0 431 -64 395 -280 725 -569
872 -159 81 -281 105 -572 111 -36 1 -65 1 -66 1z m113 -569 c216 -23 367
-126 470 -318 162 -302 77 -714 -177 -857 -69 -39 -179 -69 -278 -75 -44 -3
-264 -7 -490 -10 -225 -2 -421 -6 -435 -9 -14 -3 -42 -8 -62 -11 -95 -13 -237
-62 -298 -103 -14 -9 -37 -23 -52 -32 -15 -8 -60 -42 -99 -75 -202 -169 -316
-400 -347 -705 -7 -66 -7 -309 -1 -675 3 -171 1 -211 -15 -275 -71 -281 -268
-473 -551 -537 -11 -2 -54 -4 -95 -5 -272 -2 -502 182 -566 453 -29 122 -38
364 -20 539 17 162 21 190 41 307 18 105 70 329 85 368 7 17 14 41 17 55 9 52
107 300 167 425 89 185 228 410 331 534 408 494 875 768 1581 926 34 8 74 17
90 20 58 11 190 34 229 39 23 4 51 8 64 11 13 2 63 7 110 11 47 4 87 8 89 9 4
3 153 -3 212 -10z m-4265 -41 c72 -4 574 -8 1117 -8 542 -1 984 -4 982 -7 -2
-4 -45 -36 -96 -73 -51 -36 -104 -76 -118 -88 -14 -13 -50 -44 -80 -69 -115
-97 -280 -273 -371 -394 -24 -33 -49 -66 -56 -73 -7 -7 -20 -25 -29 -41 -46
-78 -285 -192 -689 -328 -335 -113 -580 -179 -725 -197 -25 -3 -70 -9 -100
-12 -115 -14 -298 -6 -399 17 -147 35 -232 79 -322 169 -103 102 -164 214
-199 364 -77 330 85 622 393 710 147 42 347 51 692 30z"/>
</g>
</svg>
